<mxfile host="app.diagrams.net" agent="Mozilla/5.0 (Windows NT 10.0; Win64; x64) AppleWebKit/537.36 (KHTML, like Gecko) Chrome/132.0.0.0 Safari/537.36 Edg/132.0.0.0" version="26.0.11">
  <diagram id="rrfEjIyxjretShfny2cN" name="Page-1">
    <mxGraphModel dx="883" dy="1581" grid="1" gridSize="10" guides="1" tooltips="1" connect="1" arrows="1" fold="1" page="1" pageScale="1" pageWidth="850" pageHeight="1100" math="0" shadow="0">
      <root>
        <mxCell id="0" />
        <mxCell id="1" parent="0" />
        <mxCell id="mrlbMcpsEWyVSAu99CpQ-91" value="" style="group" vertex="1" connectable="0" parent="1">
          <mxGeometry x="140" y="-660" width="1180" height="1488" as="geometry" />
        </mxCell>
        <mxCell id="mrlbMcpsEWyVSAu99CpQ-38" value="" style="group" vertex="1" connectable="0" parent="mrlbMcpsEWyVSAu99CpQ-91">
          <mxGeometry y="570" width="700" height="440" as="geometry" />
        </mxCell>
        <mxCell id="mrlbMcpsEWyVSAu99CpQ-1" value="&lt;font style=&quot;color: rgb(0, 0, 0); font-size: 15px;&quot;&gt;&lt;b style=&quot;&quot;&gt;Fibre Optic Ring&lt;/b&gt;&lt;/font&gt;" style="html=1;fillColor=#CCCCCC;strokeColor=#6881B3;shape=ellipse;perimeter=ellipsePerimeter;gradientColor=none;gradientDirection=north;fontColor=#ffffff;strokeWidth=2;" vertex="1" parent="mrlbMcpsEWyVSAu99CpQ-38">
          <mxGeometry x="220" y="50" width="310" height="270" as="geometry" />
        </mxCell>
        <mxCell id="mrlbMcpsEWyVSAu99CpQ-2" value="" style="strokeColor=#6881B3;edgeStyle=none;rounded=0;endArrow=none;dashed=0;html=1;strokeWidth=2;entryX=0.113;entryY=0.185;entryDx=0;entryDy=0;entryPerimeter=0;" edge="1" target="mrlbMcpsEWyVSAu99CpQ-1" parent="mrlbMcpsEWyVSAu99CpQ-38">
          <mxGeometry relative="1" as="geometry">
            <mxPoint x="190" y="20" as="sourcePoint" />
            <mxPoint x="270.0046669130254" y="90.02132126175275" as="targetPoint" />
            <Array as="points" />
          </mxGeometry>
        </mxCell>
        <mxCell id="mrlbMcpsEWyVSAu99CpQ-4" value="" style="strokeColor=#6881B3;edgeStyle=none;rounded=0;endArrow=none;dashed=0;html=1;strokeWidth=2;" edge="1" target="mrlbMcpsEWyVSAu99CpQ-1" parent="mrlbMcpsEWyVSAu99CpQ-38">
          <mxGeometry relative="1" as="geometry">
            <mxPoint x="580" y="20" as="sourcePoint" />
          </mxGeometry>
        </mxCell>
        <mxCell id="mrlbMcpsEWyVSAu99CpQ-5" value="" style="strokeColor=#6881B3;edgeStyle=none;rounded=0;endArrow=none;dashed=0;html=1;strokeWidth=2;" edge="1" target="mrlbMcpsEWyVSAu99CpQ-1" parent="mrlbMcpsEWyVSAu99CpQ-38">
          <mxGeometry relative="1" as="geometry">
            <mxPoint x="660" y="180" as="sourcePoint" />
          </mxGeometry>
        </mxCell>
        <mxCell id="mrlbMcpsEWyVSAu99CpQ-6" value="" style="strokeColor=#6881B3;edgeStyle=none;rounded=0;endArrow=none;dashed=0;html=1;strokeWidth=2;" edge="1" target="mrlbMcpsEWyVSAu99CpQ-1" parent="mrlbMcpsEWyVSAu99CpQ-38">
          <mxGeometry relative="1" as="geometry">
            <mxPoint x="170" y="410" as="sourcePoint" />
          </mxGeometry>
        </mxCell>
        <mxCell id="mrlbMcpsEWyVSAu99CpQ-7" value="" style="strokeColor=#6881B3;edgeStyle=none;rounded=0;endArrow=none;dashed=0;html=1;strokeWidth=2;" edge="1" target="mrlbMcpsEWyVSAu99CpQ-1" parent="mrlbMcpsEWyVSAu99CpQ-38">
          <mxGeometry relative="1" as="geometry">
            <mxPoint x="80" y="180" as="sourcePoint" />
          </mxGeometry>
        </mxCell>
        <mxCell id="mrlbMcpsEWyVSAu99CpQ-10" value="" style="strokeColor=#6881B3;edgeStyle=none;rounded=0;endArrow=none;dashed=0;html=1;strokeWidth=2;exitX=0.903;exitY=0.807;exitDx=0;exitDy=0;exitPerimeter=0;" edge="1" parent="mrlbMcpsEWyVSAu99CpQ-38" source="mrlbMcpsEWyVSAu99CpQ-1">
          <mxGeometry relative="1" as="geometry">
            <mxPoint x="510" y="273" as="sourcePoint" />
            <mxPoint x="630" y="380" as="targetPoint" />
          </mxGeometry>
        </mxCell>
        <mxCell id="mrlbMcpsEWyVSAu99CpQ-11" value="&lt;font style=&quot;color: rgb(0, 0, 0); font-size: 13px;&quot;&gt;&lt;b&gt;DR1&lt;/b&gt;&lt;/font&gt;" style="fontColor=#0066CC;verticalAlign=top;verticalLabelPosition=bottom;labelPosition=center;align=center;html=1;outlineConnect=0;fillColor=#CCCCCC;strokeColor=#6881B3;gradientColor=none;gradientDirection=north;strokeWidth=2;shape=mxgraph.networks.router;" vertex="1" parent="mrlbMcpsEWyVSAu99CpQ-38">
          <mxGeometry x="580" y="10" width="30" height="20" as="geometry" />
        </mxCell>
        <mxCell id="mrlbMcpsEWyVSAu99CpQ-12" value="" style="fontColor=#0066CC;verticalAlign=top;verticalLabelPosition=bottom;labelPosition=center;align=center;html=1;outlineConnect=0;fillColor=#CCCCCC;strokeColor=#6881B3;gradientColor=none;gradientDirection=north;strokeWidth=2;shape=mxgraph.networks.router;" vertex="1" parent="mrlbMcpsEWyVSAu99CpQ-38">
          <mxGeometry x="160" y="10" width="30" height="20" as="geometry" />
        </mxCell>
        <mxCell id="mrlbMcpsEWyVSAu99CpQ-13" value="" style="fontColor=#0066CC;verticalAlign=top;verticalLabelPosition=bottom;labelPosition=center;align=center;html=1;outlineConnect=0;fillColor=#CCCCCC;strokeColor=#6881B3;gradientColor=none;gradientDirection=north;strokeWidth=2;shape=mxgraph.networks.router;" vertex="1" parent="mrlbMcpsEWyVSAu99CpQ-38">
          <mxGeometry x="660" y="170" width="30" height="20" as="geometry" />
        </mxCell>
        <mxCell id="mrlbMcpsEWyVSAu99CpQ-14" value="" style="fontColor=#0066CC;verticalAlign=top;verticalLabelPosition=bottom;labelPosition=center;align=center;html=1;outlineConnect=0;fillColor=#CCCCCC;strokeColor=#6881B3;gradientColor=none;gradientDirection=north;strokeWidth=2;shape=mxgraph.networks.router;" vertex="1" parent="mrlbMcpsEWyVSAu99CpQ-38">
          <mxGeometry x="620" y="380" width="30" height="20" as="geometry" />
        </mxCell>
        <mxCell id="mrlbMcpsEWyVSAu99CpQ-15" value="" style="fontColor=#0066CC;verticalAlign=top;verticalLabelPosition=bottom;labelPosition=center;align=center;html=1;outlineConnect=0;fillColor=#CCCCCC;strokeColor=#6881B3;gradientColor=none;gradientDirection=north;strokeWidth=2;shape=mxgraph.networks.router;" vertex="1" parent="mrlbMcpsEWyVSAu99CpQ-38">
          <mxGeometry x="140" y="410" width="30" height="20" as="geometry" />
        </mxCell>
        <mxCell id="mrlbMcpsEWyVSAu99CpQ-16" value="" style="fontColor=#0066CC;verticalAlign=top;verticalLabelPosition=bottom;labelPosition=center;align=center;html=1;outlineConnect=0;fillColor=#CCCCCC;strokeColor=#6881B3;gradientColor=none;gradientDirection=north;strokeWidth=2;shape=mxgraph.networks.router;" vertex="1" parent="mrlbMcpsEWyVSAu99CpQ-38">
          <mxGeometry x="50" y="170" width="30" height="20" as="geometry" />
        </mxCell>
        <mxCell id="mrlbMcpsEWyVSAu99CpQ-19" value="&lt;font style=&quot;color: rgb(0, 0, 0); font-size: 13px;&quot;&gt;&lt;b&gt;DR2&lt;/b&gt;&lt;/font&gt;" style="text;html=1;align=center;verticalAlign=middle;resizable=0;points=[];autosize=1;strokeColor=none;fillColor=none;" vertex="1" parent="mrlbMcpsEWyVSAu99CpQ-38">
          <mxGeometry x="650" y="190" width="50" height="30" as="geometry" />
        </mxCell>
        <mxCell id="mrlbMcpsEWyVSAu99CpQ-20" value="&lt;font style=&quot;color: rgb(0, 0, 0); font-size: 13px;&quot;&gt;&lt;b&gt;DR5&lt;/b&gt;&lt;/font&gt;" style="text;html=1;align=center;verticalAlign=middle;resizable=0;points=[];autosize=1;strokeColor=none;fillColor=none;" vertex="1" parent="mrlbMcpsEWyVSAu99CpQ-38">
          <mxGeometry y="170" width="50" height="30" as="geometry" />
        </mxCell>
        <mxCell id="mrlbMcpsEWyVSAu99CpQ-21" value="&lt;font style=&quot;color: rgb(0, 0, 0); font-size: 13px;&quot;&gt;&lt;b&gt;DR4&lt;/b&gt;&lt;/font&gt;" style="text;html=1;align=center;verticalAlign=middle;resizable=0;points=[];autosize=1;strokeColor=none;fillColor=none;" vertex="1" parent="mrlbMcpsEWyVSAu99CpQ-38">
          <mxGeometry x="170" y="410" width="50" height="30" as="geometry" />
        </mxCell>
        <mxCell id="mrlbMcpsEWyVSAu99CpQ-22" value="&lt;font style=&quot;color: rgb(0, 0, 0); font-size: 13px;&quot;&gt;&lt;b&gt;DR3&lt;/b&gt;&lt;/font&gt;" style="text;html=1;align=center;verticalAlign=middle;resizable=0;points=[];autosize=1;strokeColor=none;fillColor=none;" vertex="1" parent="mrlbMcpsEWyVSAu99CpQ-38">
          <mxGeometry x="610" y="400" width="50" height="30" as="geometry" />
        </mxCell>
        <mxCell id="mrlbMcpsEWyVSAu99CpQ-23" value="&lt;font style=&quot;color: rgb(0, 0, 0); font-size: 13px;&quot;&gt;&lt;b&gt;DR6&lt;/b&gt;&lt;/font&gt;" style="text;html=1;align=center;verticalAlign=middle;resizable=0;points=[];autosize=1;strokeColor=none;fillColor=none;" vertex="1" parent="mrlbMcpsEWyVSAu99CpQ-38">
          <mxGeometry x="110" width="50" height="30" as="geometry" />
        </mxCell>
        <mxCell id="mrlbMcpsEWyVSAu99CpQ-74" value="" style="endArrow=classic;html=1;rounded=0;" edge="1" parent="mrlbMcpsEWyVSAu99CpQ-38">
          <mxGeometry width="50" height="50" relative="1" as="geometry">
            <mxPoint x="370" y="320" as="sourcePoint" />
            <mxPoint x="370" y="520" as="targetPoint" />
            <Array as="points" />
          </mxGeometry>
        </mxCell>
        <mxCell id="mrlbMcpsEWyVSAu99CpQ-39" value="&lt;b&gt;&lt;font style=&quot;color: rgb(0, 0, 0);&quot;&gt;INTERNET&lt;/font&gt;&lt;/b&gt;" style="html=1;outlineConnect=0;fillColor=#CCCCCC;strokeColor=#6881B3;gradientColor=none;gradientDirection=north;strokeWidth=2;shape=mxgraph.networks.cloud;fontColor=#ffffff;" vertex="1" parent="mrlbMcpsEWyVSAu99CpQ-91">
          <mxGeometry x="290" width="180" height="60" as="geometry" />
        </mxCell>
        <mxCell id="mrlbMcpsEWyVSAu99CpQ-40" value="" style="fontColor=#0066CC;verticalAlign=top;verticalLabelPosition=bottom;labelPosition=center;align=center;html=1;outlineConnect=0;fillColor=#CCCCCC;strokeColor=#6881B3;gradientColor=none;gradientDirection=north;strokeWidth=2;shape=mxgraph.networks.comm_link;" vertex="1" parent="mrlbMcpsEWyVSAu99CpQ-91">
          <mxGeometry x="430" y="90" width="20" height="50" as="geometry" />
        </mxCell>
        <mxCell id="mrlbMcpsEWyVSAu99CpQ-41" value="" style="fontColor=#0066CC;verticalAlign=top;verticalLabelPosition=bottom;labelPosition=center;align=center;html=1;outlineConnect=0;fillColor=#CCCCCC;strokeColor=#6881B3;gradientColor=none;gradientDirection=north;strokeWidth=2;shape=mxgraph.networks.comm_link;" vertex="1" parent="mrlbMcpsEWyVSAu99CpQ-91">
          <mxGeometry x="295" y="90" width="30" height="50" as="geometry" />
        </mxCell>
        <mxCell id="mrlbMcpsEWyVSAu99CpQ-42" value="&lt;b&gt;WAN LINKS&lt;/b&gt;" style="text;html=1;align=center;verticalAlign=middle;whiteSpace=wrap;rounded=0;" vertex="1" parent="mrlbMcpsEWyVSAu99CpQ-91">
          <mxGeometry x="340" y="100" width="80" height="30" as="geometry" />
        </mxCell>
        <mxCell id="mrlbMcpsEWyVSAu99CpQ-43" value="" style="group" vertex="1" connectable="0" parent="mrlbMcpsEWyVSAu99CpQ-91">
          <mxGeometry x="120" y="170" width="500" height="580" as="geometry" />
        </mxCell>
        <mxCell id="mrlbMcpsEWyVSAu99CpQ-24" value="" style="rounded=0;whiteSpace=wrap;html=1;align=left;" vertex="1" parent="mrlbMcpsEWyVSAu99CpQ-43">
          <mxGeometry width="500" height="230" as="geometry" />
        </mxCell>
        <mxCell id="mrlbMcpsEWyVSAu99CpQ-25" value="&lt;b&gt;&lt;font style=&quot;font-size: 15px;&quot;&gt;MFN HEADBEND&lt;/font&gt;&lt;/b&gt;" style="text;html=1;align=center;verticalAlign=middle;whiteSpace=wrap;rounded=0;" vertex="1" parent="mrlbMcpsEWyVSAu99CpQ-43">
          <mxGeometry x="90" y="10" width="320" height="30" as="geometry" />
        </mxCell>
        <mxCell id="mrlbMcpsEWyVSAu99CpQ-26" value="" style="fontColor=#0066CC;verticalAlign=top;verticalLabelPosition=bottom;labelPosition=center;align=center;html=1;outlineConnect=0;fillColor=#CCCCCC;strokeColor=#6881B3;gradientColor=none;gradientDirection=north;strokeWidth=2;shape=mxgraph.networks.router;" vertex="1" parent="mrlbMcpsEWyVSAu99CpQ-43">
          <mxGeometry x="45" y="100" width="30" height="20" as="geometry" />
        </mxCell>
        <mxCell id="mrlbMcpsEWyVSAu99CpQ-27" value="" style="fontColor=#0066CC;verticalAlign=top;verticalLabelPosition=bottom;labelPosition=center;align=center;html=1;outlineConnect=0;fillColor=#CCCCCC;strokeColor=#6881B3;gradientColor=none;gradientDirection=north;strokeWidth=2;shape=mxgraph.networks.router;" vertex="1" parent="mrlbMcpsEWyVSAu99CpQ-43">
          <mxGeometry x="135" y="100" width="30" height="20" as="geometry" />
        </mxCell>
        <mxCell id="mrlbMcpsEWyVSAu99CpQ-28" value="" style="fontColor=#0066CC;verticalAlign=top;verticalLabelPosition=bottom;labelPosition=center;align=center;html=1;outlineConnect=0;fillColor=#CCCCCC;strokeColor=#6881B3;gradientColor=none;gradientDirection=north;strokeWidth=2;shape=mxgraph.networks.router;" vertex="1" parent="mrlbMcpsEWyVSAu99CpQ-43">
          <mxGeometry x="225" y="100" width="30" height="20" as="geometry" />
        </mxCell>
        <mxCell id="mrlbMcpsEWyVSAu99CpQ-30" value="R1" style="text;html=1;align=center;verticalAlign=middle;whiteSpace=wrap;rounded=0;" vertex="1" parent="mrlbMcpsEWyVSAu99CpQ-43">
          <mxGeometry x="30" y="130" width="60" height="30" as="geometry" />
        </mxCell>
        <mxCell id="mrlbMcpsEWyVSAu99CpQ-31" value="R2" style="text;html=1;align=center;verticalAlign=middle;whiteSpace=wrap;rounded=0;" vertex="1" parent="mrlbMcpsEWyVSAu99CpQ-43">
          <mxGeometry x="120" y="130" width="60" height="30" as="geometry" />
        </mxCell>
        <mxCell id="mrlbMcpsEWyVSAu99CpQ-32" value="R3" style="text;html=1;align=center;verticalAlign=middle;whiteSpace=wrap;rounded=0;" vertex="1" parent="mrlbMcpsEWyVSAu99CpQ-43">
          <mxGeometry x="210" y="130" width="60" height="30" as="geometry" />
        </mxCell>
        <mxCell id="mrlbMcpsEWyVSAu99CpQ-35" value="" style="fontColor=#0066CC;verticalAlign=top;verticalLabelPosition=bottom;labelPosition=center;align=center;html=1;outlineConnect=0;fillColor=#CCCCCC;strokeColor=#6881B3;gradientColor=none;gradientDirection=north;strokeWidth=2;shape=mxgraph.networks.modem;" vertex="1" parent="mrlbMcpsEWyVSAu99CpQ-43">
          <mxGeometry x="360" y="100" width="100" height="30" as="geometry" />
        </mxCell>
        <mxCell id="mrlbMcpsEWyVSAu99CpQ-36" value="&lt;b&gt;Cable Modem&lt;/b&gt;" style="text;html=1;align=center;verticalAlign=middle;whiteSpace=wrap;rounded=0;" vertex="1" parent="mrlbMcpsEWyVSAu99CpQ-43">
          <mxGeometry x="380" y="140" width="80" height="30" as="geometry" />
        </mxCell>
        <mxCell id="mrlbMcpsEWyVSAu99CpQ-49" value="" style="line;strokeWidth=1;direction=south;html=1;" vertex="1" parent="mrlbMcpsEWyVSAu99CpQ-43">
          <mxGeometry x="55" y="120" width="10" height="170" as="geometry" />
        </mxCell>
        <mxCell id="mrlbMcpsEWyVSAu99CpQ-50" value="" style="line;strokeWidth=1;direction=south;html=1;" vertex="1" parent="mrlbMcpsEWyVSAu99CpQ-43">
          <mxGeometry x="145" y="120" width="10" height="170" as="geometry" />
        </mxCell>
        <mxCell id="mrlbMcpsEWyVSAu99CpQ-51" value="" style="line;strokeWidth=1;direction=south;html=1;" vertex="1" parent="mrlbMcpsEWyVSAu99CpQ-43">
          <mxGeometry x="230" y="120" width="10" height="170" as="geometry" />
        </mxCell>
        <mxCell id="mrlbMcpsEWyVSAu99CpQ-52" value="" style="line;strokeWidth=1;html=1;perimeter=backbonePerimeter;points=[];outlineConnect=0;" vertex="1" parent="mrlbMcpsEWyVSAu99CpQ-43">
          <mxGeometry x="60" y="285" width="180" height="10" as="geometry" />
        </mxCell>
        <mxCell id="mrlbMcpsEWyVSAu99CpQ-55" value="" style="curved=1;endArrow=classic;html=1;rounded=0;" edge="1" parent="mrlbMcpsEWyVSAu99CpQ-43" source="mrlbMcpsEWyVSAu99CpQ-52">
          <mxGeometry width="50" height="50" relative="1" as="geometry">
            <mxPoint x="80" y="380" as="sourcePoint" />
            <mxPoint x="50" y="410" as="targetPoint" />
            <Array as="points">
              <mxPoint x="130" y="380" />
              <mxPoint x="80" y="330" />
            </Array>
          </mxGeometry>
        </mxCell>
        <mxCell id="mrlbMcpsEWyVSAu99CpQ-44" value="" style="endArrow=classic;html=1;rounded=0;entryX=0.5;entryY=0;entryDx=0;entryDy=0;entryPerimeter=0;" edge="1" parent="mrlbMcpsEWyVSAu99CpQ-91" source="mrlbMcpsEWyVSAu99CpQ-35" target="mrlbMcpsEWyVSAu99CpQ-11">
          <mxGeometry width="50" height="50" relative="1" as="geometry">
            <mxPoint x="400" y="550" as="sourcePoint" />
            <mxPoint x="400" y="650" as="targetPoint" />
          </mxGeometry>
        </mxCell>
        <mxCell id="mrlbMcpsEWyVSAu99CpQ-56" value="" style="fontColor=#0066CC;verticalAlign=top;verticalLabelPosition=bottom;labelPosition=center;align=center;html=1;outlineConnect=0;fillColor=#CCCCCC;strokeColor=#6881B3;gradientColor=none;gradientDirection=north;strokeWidth=2;shape=mxgraph.networks.business_center;" vertex="1" parent="mrlbMcpsEWyVSAu99CpQ-91">
          <mxGeometry x="780" y="690" width="70" height="70" as="geometry" />
        </mxCell>
        <mxCell id="mrlbMcpsEWyVSAu99CpQ-57" value="&lt;font style=&quot;color: rgb(0, 0, 0); font-size: 13px;&quot;&gt;&lt;b&gt;BUSINESS&lt;/b&gt;&lt;/font&gt;&lt;div&gt;&lt;font style=&quot;color: rgb(0, 0, 0); font-size: 13px;&quot;&gt;&lt;b&gt;&lt;br&gt;&lt;/b&gt;&lt;/font&gt;&lt;/div&gt;" style="text;html=1;align=center;verticalAlign=middle;resizable=0;points=[];autosize=1;strokeColor=none;fillColor=none;" vertex="1" parent="mrlbMcpsEWyVSAu99CpQ-91">
          <mxGeometry x="770" y="765" width="90" height="40" as="geometry" />
        </mxCell>
        <mxCell id="mrlbMcpsEWyVSAu99CpQ-58" value="" style="endArrow=classic;html=1;rounded=0;" edge="1" parent="mrlbMcpsEWyVSAu99CpQ-91">
          <mxGeometry width="50" height="50" relative="1" as="geometry">
            <mxPoint x="690" y="750" as="sourcePoint" />
            <mxPoint x="780" y="749" as="targetPoint" />
          </mxGeometry>
        </mxCell>
        <mxCell id="mrlbMcpsEWyVSAu99CpQ-59" value="" style="fontColor=#0066CC;verticalAlign=top;verticalLabelPosition=bottom;labelPosition=center;align=center;html=1;outlineConnect=0;fillColor=#CCCCCC;strokeColor=#6881B3;gradientColor=none;gradientDirection=north;strokeWidth=2;shape=mxgraph.networks.patch_panel;" vertex="1" parent="mrlbMcpsEWyVSAu99CpQ-91">
          <mxGeometry x="970" y="730" width="50" height="15" as="geometry" />
        </mxCell>
        <mxCell id="mrlbMcpsEWyVSAu99CpQ-61" value="" style="endArrow=classic;html=1;rounded=0;entryX=0.02;entryY=0.51;entryDx=0;entryDy=0;entryPerimeter=0;" edge="1" parent="mrlbMcpsEWyVSAu99CpQ-91" target="mrlbMcpsEWyVSAu99CpQ-59">
          <mxGeometry width="50" height="50" relative="1" as="geometry">
            <mxPoint x="850" y="738" as="sourcePoint" />
            <mxPoint x="940" y="737" as="targetPoint" />
            <Array as="points" />
          </mxGeometry>
        </mxCell>
        <mxCell id="mrlbMcpsEWyVSAu99CpQ-62" value="UTP Cable" style="edgeLabel;html=1;align=center;verticalAlign=middle;resizable=0;points=[];" vertex="1" connectable="0" parent="mrlbMcpsEWyVSAu99CpQ-61">
          <mxGeometry x="-0.0248" y="-1" relative="1" as="geometry">
            <mxPoint as="offset" />
          </mxGeometry>
        </mxCell>
        <mxCell id="mrlbMcpsEWyVSAu99CpQ-64" value="" style="endArrow=classic;html=1;rounded=0;exitX=0.5;exitY=1;exitDx=0;exitDy=0;exitPerimeter=0;" edge="1" parent="mrlbMcpsEWyVSAu99CpQ-91" source="mrlbMcpsEWyVSAu99CpQ-59">
          <mxGeometry width="50" height="50" relative="1" as="geometry">
            <mxPoint x="990" y="800" as="sourcePoint" />
            <mxPoint x="995" y="840" as="targetPoint" />
            <Array as="points" />
          </mxGeometry>
        </mxCell>
        <mxCell id="mrlbMcpsEWyVSAu99CpQ-65" value="UTP Cable" style="edgeLabel;html=1;align=center;verticalAlign=middle;resizable=0;points=[];" vertex="1" connectable="0" parent="mrlbMcpsEWyVSAu99CpQ-64">
          <mxGeometry x="-0.0248" y="-1" relative="1" as="geometry">
            <mxPoint as="offset" />
          </mxGeometry>
        </mxCell>
        <mxCell id="mrlbMcpsEWyVSAu99CpQ-66" value="&lt;div&gt;&lt;font style=&quot;color: rgb(0, 0, 0); font-size: 13px;&quot;&gt;&lt;b&gt;Media converter&lt;/b&gt;&lt;/font&gt;&lt;/div&gt;" style="text;html=1;align=center;verticalAlign=middle;resizable=0;points=[];autosize=1;strokeColor=none;fillColor=none;" vertex="1" parent="mrlbMcpsEWyVSAu99CpQ-91">
          <mxGeometry x="935" y="695" width="120" height="30" as="geometry" />
        </mxCell>
        <mxCell id="mrlbMcpsEWyVSAu99CpQ-67" value="&lt;font style=&quot;color: rgb(0, 0, 0);&quot;&gt;&lt;b&gt;EthernetSwitch&lt;/b&gt;&lt;/font&gt;" style="fontColor=#0066CC;verticalAlign=top;verticalLabelPosition=bottom;labelPosition=center;align=center;html=1;outlineConnect=0;fillColor=#CCCCCC;strokeColor=#6881B3;gradientColor=none;gradientDirection=north;strokeWidth=2;shape=mxgraph.networks.switch;" vertex="1" parent="mrlbMcpsEWyVSAu99CpQ-91">
          <mxGeometry x="970" y="840" width="55" height="40" as="geometry" />
        </mxCell>
        <mxCell id="mrlbMcpsEWyVSAu99CpQ-68" value="" style="endArrow=classic;html=1;rounded=0;exitX=0;exitY=0.5;exitDx=0;exitDy=0;exitPerimeter=0;" edge="1" parent="mrlbMcpsEWyVSAu99CpQ-91" source="mrlbMcpsEWyVSAu99CpQ-67">
          <mxGeometry width="50" height="50" relative="1" as="geometry">
            <mxPoint x="830" y="901" as="sourcePoint" />
            <mxPoint x="890" y="860" as="targetPoint" />
          </mxGeometry>
        </mxCell>
        <mxCell id="mrlbMcpsEWyVSAu99CpQ-69" value="" style="endArrow=classic;html=1;rounded=0;exitX=0.5;exitY=1;exitDx=0;exitDy=0;exitPerimeter=0;" edge="1" parent="mrlbMcpsEWyVSAu99CpQ-91" source="mrlbMcpsEWyVSAu99CpQ-67">
          <mxGeometry width="50" height="50" relative="1" as="geometry">
            <mxPoint x="980" y="931" as="sourcePoint" />
            <mxPoint x="998" y="970" as="targetPoint" />
            <Array as="points">
              <mxPoint x="998" y="930" />
            </Array>
          </mxGeometry>
        </mxCell>
        <mxCell id="mrlbMcpsEWyVSAu99CpQ-70" value="" style="endArrow=classic;html=1;rounded=0;" edge="1" parent="mrlbMcpsEWyVSAu99CpQ-91">
          <mxGeometry width="50" height="50" relative="1" as="geometry">
            <mxPoint x="1025" y="851" as="sourcePoint" />
            <mxPoint x="1115" y="850" as="targetPoint" />
            <Array as="points">
              <mxPoint x="1055" y="851" />
              <mxPoint x="1065" y="851" />
            </Array>
          </mxGeometry>
        </mxCell>
        <mxCell id="mrlbMcpsEWyVSAu99CpQ-71" value="&lt;font style=&quot;color: rgb(0, 0, 0);&quot;&gt;&lt;b&gt;Server&lt;/b&gt;&lt;/font&gt;" style="fontColor=#0066CC;verticalAlign=top;verticalLabelPosition=bottom;labelPosition=center;align=center;html=1;outlineConnect=0;fillColor=#CCCCCC;strokeColor=#6881B3;gradientColor=none;gradientDirection=north;strokeWidth=2;shape=mxgraph.networks.web_server;" vertex="1" parent="mrlbMcpsEWyVSAu99CpQ-91">
          <mxGeometry x="1120" y="810" width="60" height="70" as="geometry" />
        </mxCell>
        <mxCell id="mrlbMcpsEWyVSAu99CpQ-72" value="&lt;font style=&quot;color: rgb(0, 0, 0);&quot;&gt;PC&lt;/font&gt;" style="fontColor=#0066CC;verticalAlign=top;verticalLabelPosition=bottom;labelPosition=center;align=center;html=1;outlineConnect=0;fillColor=#CCCCCC;strokeColor=#6881B3;gradientColor=none;gradientDirection=north;strokeWidth=2;shape=mxgraph.networks.laptop;" vertex="1" parent="mrlbMcpsEWyVSAu99CpQ-91">
          <mxGeometry x="955" y="970" width="65" height="40" as="geometry" />
        </mxCell>
        <mxCell id="mrlbMcpsEWyVSAu99CpQ-73" value="&lt;font style=&quot;color: rgb(0, 0, 0);&quot;&gt;PC&lt;/font&gt;" style="fontColor=#0066CC;verticalAlign=top;verticalLabelPosition=bottom;labelPosition=center;align=center;html=1;outlineConnect=0;fillColor=#CCCCCC;strokeColor=#6881B3;gradientColor=none;gradientDirection=north;strokeWidth=2;shape=mxgraph.networks.pc;" vertex="1" parent="mrlbMcpsEWyVSAu99CpQ-91">
          <mxGeometry x="820" y="840" width="70" height="50" as="geometry" />
        </mxCell>
        <mxCell id="mrlbMcpsEWyVSAu99CpQ-76" value="&lt;font style=&quot;color: rgb(0, 0, 0);&quot;&gt;&lt;b&gt;Hybrid Fibre-Coax Nodes&lt;/b&gt;&lt;/font&gt;" style="fontColor=#0066CC;verticalAlign=top;verticalLabelPosition=bottom;labelPosition=center;align=center;html=1;outlineConnect=0;fillColor=#CCCCCC;strokeColor=#6881B3;gradientColor=none;gradientDirection=north;strokeWidth=2;shape=mxgraph.networks.patch_panel;" vertex="1" parent="mrlbMcpsEWyVSAu99CpQ-91">
          <mxGeometry x="325" y="1090" width="85" height="40" as="geometry" />
        </mxCell>
        <mxCell id="mrlbMcpsEWyVSAu99CpQ-80" value="" style="group" vertex="1" connectable="0" parent="mrlbMcpsEWyVSAu99CpQ-91">
          <mxGeometry x="295" y="1230" width="175" height="50" as="geometry" />
        </mxCell>
        <mxCell id="mrlbMcpsEWyVSAu99CpQ-77" value="" style="fontColor=#0066CC;verticalAlign=top;verticalLabelPosition=bottom;labelPosition=center;align=center;html=1;outlineConnect=0;fillColor=#CCCCCC;strokeColor=#6881B3;gradientColor=none;gradientDirection=north;strokeWidth=2;shape=mxgraph.networks.community;" vertex="1" parent="mrlbMcpsEWyVSAu99CpQ-80">
          <mxGeometry width="50" height="50" as="geometry" />
        </mxCell>
        <mxCell id="mrlbMcpsEWyVSAu99CpQ-78" value="" style="fontColor=#0066CC;verticalAlign=top;verticalLabelPosition=bottom;labelPosition=center;align=center;html=1;outlineConnect=0;fillColor=#CCCCCC;strokeColor=#6881B3;gradientColor=none;gradientDirection=north;strokeWidth=2;shape=mxgraph.networks.community;" vertex="1" parent="mrlbMcpsEWyVSAu99CpQ-80">
          <mxGeometry x="60" width="50" height="50" as="geometry" />
        </mxCell>
        <mxCell id="mrlbMcpsEWyVSAu99CpQ-79" value="" style="fontColor=#0066CC;verticalAlign=top;verticalLabelPosition=bottom;labelPosition=center;align=center;html=1;outlineConnect=0;fillColor=#CCCCCC;strokeColor=#6881B3;gradientColor=none;gradientDirection=north;strokeWidth=2;shape=mxgraph.networks.community;" vertex="1" parent="mrlbMcpsEWyVSAu99CpQ-80">
          <mxGeometry x="115" width="50" height="50" as="geometry" />
        </mxCell>
        <mxCell id="mrlbMcpsEWyVSAu99CpQ-81" value="&lt;b&gt;&lt;font style=&quot;color: rgb(0, 0, 0);&quot;&gt;STREETS&lt;/font&gt;&lt;/b&gt;" style="text;html=1;align=center;verticalAlign=middle;resizable=0;points=[];autosize=1;strokeColor=none;fillColor=none;" vertex="1" parent="mrlbMcpsEWyVSAu99CpQ-91">
          <mxGeometry x="330" y="1280" width="80" height="30" as="geometry" />
        </mxCell>
        <mxCell id="mrlbMcpsEWyVSAu99CpQ-83" value="" style="endArrow=classic;html=1;rounded=0;" edge="1" parent="mrlbMcpsEWyVSAu99CpQ-91">
          <mxGeometry width="50" height="50" relative="1" as="geometry">
            <mxPoint x="370" y="1130" as="sourcePoint" />
            <mxPoint x="370" y="1220" as="targetPoint" />
            <Array as="points" />
          </mxGeometry>
        </mxCell>
        <mxCell id="mrlbMcpsEWyVSAu99CpQ-84" value="&lt;b&gt;COAX CABLING&lt;/b&gt;" style="edgeLabel;html=1;align=center;verticalAlign=middle;resizable=0;points=[];" vertex="1" connectable="0" parent="mrlbMcpsEWyVSAu99CpQ-83">
          <mxGeometry x="-0.0222" relative="1" as="geometry">
            <mxPoint as="offset" />
          </mxGeometry>
        </mxCell>
        <mxCell id="mrlbMcpsEWyVSAu99CpQ-85" value="" style="fontColor=#0066CC;verticalAlign=top;verticalLabelPosition=bottom;labelPosition=center;align=center;html=1;outlineConnect=0;fillColor=#CCCCCC;strokeColor=#6881B3;gradientColor=none;gradientDirection=north;strokeWidth=2;shape=mxgraph.networks.users;" vertex="1" parent="mrlbMcpsEWyVSAu99CpQ-91">
          <mxGeometry x="320" y="1370" width="90" height="100" as="geometry" />
        </mxCell>
        <mxCell id="mrlbMcpsEWyVSAu99CpQ-86" value="" style="endArrow=classic;html=1;rounded=0;" edge="1" parent="mrlbMcpsEWyVSAu99CpQ-91">
          <mxGeometry width="50" height="50" relative="1" as="geometry">
            <mxPoint x="364.5" y="1280" as="sourcePoint" />
            <mxPoint x="364.5" y="1370" as="targetPoint" />
            <Array as="points" />
          </mxGeometry>
        </mxCell>
        <mxCell id="mrlbMcpsEWyVSAu99CpQ-87" value="&lt;b&gt;COAX CABLING&lt;/b&gt;" style="edgeLabel;html=1;align=center;verticalAlign=middle;resizable=0;points=[];" vertex="1" connectable="0" parent="mrlbMcpsEWyVSAu99CpQ-86">
          <mxGeometry x="-0.0222" relative="1" as="geometry">
            <mxPoint as="offset" />
          </mxGeometry>
        </mxCell>
        <mxCell id="mrlbMcpsEWyVSAu99CpQ-88" value="&lt;b&gt;NEIGHBOURHOOD &amp;amp; HOME&lt;/b&gt;" style="text;html=1;align=center;verticalAlign=middle;resizable=0;points=[];autosize=1;strokeColor=none;fillColor=none;" vertex="1" parent="mrlbMcpsEWyVSAu99CpQ-91">
          <mxGeometry x="280" y="1458" width="180" height="30" as="geometry" />
        </mxCell>
      </root>
    </mxGraphModel>
  </diagram>
</mxfile>
